Coordinates
version=1
nRows=30
nColumns=30
inDegrees=yes

Units are S.I. units (second, meters, Newtons, ...)
Angles are in degrees.

endheader
time	floatyaw	floatroll	floatpitch	floatx	floaty	floatz	pro_sup_l	deviation_l	flexion_l	cmc_flexion_l	cmc_abduction_l	mp_flexion_l	ip_flexion_l	2mcp_flexion_l	2mcp_abduction_l	2pm_flexion_l	2md_flexion_l	3mcp_flexion_l	3mcp_abduction_l	3pm_flexion_l	3md_flexion_l	4mcp_flexion_l	4mcp_abduction_l	4pm_flexion_l	4md_flexion_l	5mcp_flexion_l	5mcp_abduction_l	5pm_flexion_l	5md_flexion_l
-0.995000	-0.845308	-4.283240	94.249796	-0.006692	-0.268766	-0.000728	90.119230	-0.925005	-2.355223	27.834231	2.323547	-18.880079	-34.844861	18.982574	5.440104	33.027975	20.623955	8.939464	3.972650	35.490708	21.290595	-0.958556	-3.147643	52.615916	33.329945	-19.199212	-9.752165	60.833998	48.759422
-0.985000	-0.845308	-4.283240	94.249796	-0.006720	-0.268785	-0.000702	90.121970	-0.930017	-2.361755	27.839237	2.297323	-18.879956	-34.861859	19.000563	5.447414	32.965883	20.638368	8.964245	3.979524	35.424880	21.291396	-0.974610	-3.151451	52.562301	33.371080	-19.178291	-9.763804	60.744445	48.771325
-0.975000	-0.845308	-4.283240	94.249796	-0.006746	-0.268799	-0.000680	90.125324	-0.932385	-2.363307	27.828544	2.272764	-18.871375	-34.876233	19.006205	5.453193	32.911555	20.658340	8.974006	3.985711	35.372579	21.301186	-1.007447	-3.152948	52.529543	33.418481	-19.179269	-9.786067	60.677066	48.783201
-0.965000	-0.845308	-4.283240	94.249796	-0.006764	-0.268805	-0.000664	90.131849	-0.930102	-2.358597	27.811589	2.245306	-18.856377	-34.898772	18.989499	5.455577	32.883890	20.684944	8.958640	3.990444	35.353308	21.324471	-1.059256	-3.151409	52.532566	33.465200	-19.204878	-9.815673	60.653791	48.780858
-0.955000	-0.845308	-4.283240	94.249796	-0.006769	-0.268803	-0.000658	90.146599	-0.921278	-2.350021	27.798659	2.209907	-18.836807	-34.935321	18.949160	5.454937	32.892314	20.716644	8.919664	3.993367	35.374865	21.360346	-1.119914	-3.146690	52.571749	33.502521	-19.246785	-9.846838	60.683966	48.755274
-0.945000	-0.845308	-4.283240	94.249796	-0.006763	-0.268795	-0.000664	90.173718	-0.905577	-2.342494	27.795142	2.165609	-18.814610	-34.980802	18.894191	5.453420	32.932377	20.748912	8.870346	3.994597	35.428951	21.401655	-1.169514	-3.139136	52.630979	33.522807	-19.288921	-9.873696	60.757669	48.707444
-0.935000	-0.845308	-4.283240	94.249796	-0.006751	-0.268785	-0.000678	90.212916	-0.885245	-2.340762	27.798570	2.117851	-18.792099	-35.019641	18.840263	5.453532	32.987921	20.775072	8.829414	3.994476	35.494805	21.437326	-1.187782	-3.129744	52.684951	33.522315	-19.315230	-9.892341	60.848292	48.648080
-0.925000	-0.845308	-4.283240	94.249796	-0.006739	-0.268774	-0.000692	90.257852	-0.864816	-2.346571	27.799696	2.076716	-18.771114	-35.032397	18.802514	5.456710	33.038792	20.788594	8.811508	3.993097	35.549306	21.457190	-1.165615	-3.120592	52.712395	33.502780	-19.318313	-9.901195	60.924870	48.592975
-0.915000	-0.845308	-4.283240	94.249796	-0.006734	-0.268766	-0.000700	90.297575	-0.849464	-2.357309	27.786955	2.052165	-18.751299	-35.005034	18.788331	5.462804	33.070379	20.786087	8.819426	3.990020	35.578374	21.456886	-1.111876	-3.114976	52.707772	33.470866	-19.304334	-9.899892	60.967815	48.556772
-0.905000	-0.845308	-4.283240	94.249796	-0.006735	-0.268760	-0.000700	90.320753	-0.842899	-2.367190	27.752448	2.049409	-18.729258	-34.936248	18.794218	5.470738	33.080054	20.769217	8.842693	3.984573	35.583353	21.439912	-1.050474	-3.116574	52.684146	33.435422	-19.290592	-9.888210	60.978291	48.547717
-0.895000	-0.845308	-4.283240	94.249796	-0.006739	-0.268756	-0.000696	90.320796	-0.846015	-2.370509	27.696788	2.067202	-18.700093	-34.839493	18.808724	5.479729	33.076992	20.744058	8.863491	3.976653	35.578715	21.415449	-1.008590	-3.127666	52.665164	33.403680	-19.296212	-9.866251	60.975103	48.565088
-0.885000	-0.845308	-4.283240	94.249796	-0.006741	-0.268752	-0.000693	90.299019	-0.856952	-2.364900	27.630073	2.099306	-18.660726	-34.738580	18.819469	5.489907	33.075592	20.718163	8.866452	3.967403	35.582414	21.393350	-1.003073	-3.147532	52.671082	33.378376	-19.331377	-9.835573	60.981376	48.599849
-0.875000	-0.845308	-4.283240	94.249796	-0.006739	-0.268749	-0.000695	90.264049	-0.872290	-2.352378	27.567962	2.137027	-18.612653	-34.658591	18.819563	5.501697	33.086477	20.697226	8.846491	3.959072	35.604602	21.379398	-1.033407	-3.172292	52.707616	33.357371	-19.391848	-9.800002	61.010038	48.638081
-0.865000	-0.845308	-4.283240	94.249796	-0.006734	-0.268747	-0.000701	90.227965	-0.888416	-2.337655	27.524959	2.170922	-18.562238	-34.616410	18.809658	5.514546	33.110554	20.683160	8.810559	3.954016	35.641411	21.373289	-1.084704	-3.196518	52.764107	33.335926	-19.461773	-9.765173	61.057169	48.666137
-0.855000	-0.845308	-4.283240	94.249796	-0.006730	-0.268744	-0.000708	90.201358	-0.902376	-2.325199	27.508858	2.192118	-18.518633	-34.615422	18.795351	5.526295	33.139637	20.674223	8.773136	3.953500	35.677508	21.369874	-1.137317	-3.215615	52.821178	33.310263	-19.522271	-9.736921	61.106209	48.676134
-0.845000	-0.845308	-4.283240	94.249796	-0.006732	-0.268741	-0.000710	90.189496	-0.912183	-2.317097	27.519202	2.194747	-18.490837	-34.646567	18.782569	5.533924	33.162792	20.666837	8.748543	3.957138	35.695714	21.362680	-1.176501	-3.227479	52.862221	33.280443	-19.560445	-9.719444	61.138995	48.669730
-0.835000	-0.845308	-4.283240	94.249796	-0.006741	-0.268736	-0.000709	90.190975	-0.916964	-2.312819	27.549560	2.179115	-18.485081	-34.694633	18.774060	5.535103	33.173764	20.658242	8.744163	3.963267	35.687462	21.347935	-1.197279	-3.232544	52.881551	33.251037	-19.574342	-9.714301	61.146016	48.657701
-0.825000	-0.845308	-4.283240	94.249796	-0.006752	-0.268729	-0.000708	90.199259	-0.917143	-2.310616	27.591376	2.152885	-18.503129	-34.746386	18.768726	5.529224	33.174448	20.648575	8.757786	3.969849	35.657484	21.326946	-1.203575	-3.232444	52.884971	33.229047	-19.572075	-9.720725	61.129993	48.654247
-0.815000	-0.845308	-4.283240	94.249796	-0.006762	-0.268723	-0.000708	90.206407	-0.914382	-2.309408	27.637149	2.128095	-18.541886	-34.796403	18.763492	5.517132	33.172708	20.641005	8.780037	3.975194	35.620180	21.305331	-1.203566	-3.228388	52.883727	33.220096	-19.566268	-9.736789	61.101999	48.668440
-0.805000	-0.845308	-4.283240	94.249796	-0.006766	-0.268723	-0.000710	90.207157	-0.910988	-2.309910	27.681919	2.115176	-18.594516	-34.847608	18.755887	5.499974	33.177065	20.639855	8.800100	3.978108	35.590789	21.289662	-1.204410	-3.220402	52.886730	33.225079	-19.567124	-9.760354	61.074220	48.697787
-0.795000	-0.845308	-4.283240	94.249796	-0.006765	-0.268735	-0.000709	90.201145	-0.908894	-2.314257	27.722934	2.117850	-18.652368	-34.906409	18.745372	5.478379	33.192267	20.648141	8.811176	3.977684	35.577496	21.283996	-1.209040	-3.207825	52.896143	33.239503	-19.577953	-9.789033	61.054497	48.728254
-0.785000	-0.845308	-4.283240	94.249796	-0.006762	-0.268759	-0.000698	90.192046	-0.908911	-2.324390	27.758167	2.132413	-18.706742	-34.975692	18.732962	5.452788	33.217903	20.666126	8.812693	3.973281	35.578962	21.288547	-1.215956	-3.190530	52.908006	33.255942	-19.595143	-9.819483	61.044815	48.741312
-0.775000	-0.845308	-4.283240	94.249796	-0.006761	-0.268795	-0.000674	90.184427	-0.910886	-2.340398	27.785160	2.151744	-18.750476	-35.050450	18.720395	5.424568	33.249412	20.691267	8.808962	3.964955	35.587364	21.300634	-1.220891	-3.169896	52.915645	33.267888	-19.611541	-9.847193	61.042291	48.724347
-0.765000	-0.845308	-4.283240	94.249796	-0.006763	-0.268836	-0.000639	90.180534	-0.914592	-2.360076	27.801663	2.171142	-18.779873	-35.119119	18.710131	5.396784	33.279850	20.718877	8.806208	3.953956	35.593723	21.316362	-1.218496	-3.148825	52.912468	33.272520	-19.620362	-9.867589	61.040316	48.678632
-0.755000	-0.845308	-4.283240	94.249796	-0.006767	-0.268875	-0.000598	90.179139	-0.920448	-2.379955	27.807713	2.191875	-18.796269	-35.169642	18.705950	5.373786	33.301790	20.742843	8.810040	3.942688	35.592176	21.331584	-1.203318	-3.130767	52.892900	33.270998	-19.617370	-9.878034	61.029320	48.620326
-0.745000	-0.845308	-4.283240	94.249796	-0.006773	-0.268905	-0.000557	90.177068	-0.929278	-2.396831	27.806833	2.219799	-18.805371	-35.195898	18.712584	5.359748	33.309476	20.756426	8.823927	3.933853	35.581768	21.342017	-1.170773	-3.118304	52.852757	33.266639	-19.601035	-9.879338	60.998304	48.573817
-0.735000	-0.845308	-4.283240	94.249796	-0.006777	-0.268918	-0.000524	90.171931	-0.941277	-2.408555	27.804357	2.260029	-18.813753	-35.200024	18.733540	5.356975	33.300899	20.753680	8.848205	3.929143	35.565944	21.343411	-1.118926	-3.112075	52.790584	33.262405	-19.571883	-9.875598	60.937945	48.560941
-0.725000	-0.845308	-4.283240	94.249796	-0.006778	-0.268911	-0.000502	90.163699	-0.955194	-2.413766	27.803437	2.311896	-18.824600	-35.189142	18.768364	5.364927	33.278562	20.731637	8.879494	3.928272	35.550550	21.332654	-1.050542	-3.110659	52.709635	33.259218	-19.532178	-9.872202	60.844614	48.591779
-0.715000	-0.845308	-4.283240	94.249796	-0.006774	-0.268881	-0.000495	90.153880	-0.968517	-2.411293	27.801578	2.368296	-18.835797	-35.168801	18.811704	5.380460	33.247905	20.692350	8.911087	3.929059	35.541119	21.309617	-0.973765	-3.111498	52.618471	33.255891	-19.485975	-9.872810	60.723422	48.661474
-0.705000	-0.845308	-4.283240	94.249796	-0.006766	-0.268830	-0.000502	90.143372	-0.978569	-2.400120	27.790569	2.419615	-18.841727	-35.137544	18.855267	5.399128	33.213908	20.643237	8.934891	3.928673	35.540236	21.278395	-0.900339	-3.112342	52.528627	33.250455	-19.438765	-9.876726	60.588456	48.753769
